<svg width="40" height="40" viewBox="0 0 40 40" fill="none" xmlns="http://www.w3.org/2000/svg">
<g id="PlayCircle">
<path id="Vector" d="M20 3.75C16.7861 3.75 13.6443 4.70305 10.972 6.48862C8.29969 8.27419 6.21689 10.8121 4.98696 13.7814C3.75704 16.7507 3.43524 20.018 4.06225 23.1702C4.68926 26.3224 6.23692 29.2179 8.50952 31.4905C10.7821 33.7631 13.6776 35.3107 16.8298 35.9378C19.982 36.5648 23.2493 36.243 26.2186 35.013C29.1879 33.7831 31.7258 31.7003 33.5114 29.028C35.297 26.3557 36.25 23.2139 36.25 20C36.245 15.6918 34.5314 11.5614 31.485 8.51501C28.4386 5.46863 24.3082 3.75498 20 3.75ZM25.6934 21.04L18.1934 26.04C18.0052 26.1658 17.7863 26.238 17.5603 26.249C17.3342 26.26 17.1094 26.2095 16.9099 26.1027C16.7103 25.9959 16.5435 25.8369 16.4273 25.6427C16.3111 25.4485 16.2498 25.2263 16.25 25V15C16.2498 14.7737 16.3111 14.5515 16.4273 14.3573C16.5435 14.1631 16.7103 14.0041 16.9099 13.8973C17.1094 13.7905 17.3342 13.74 17.5603 13.751C17.7863 13.762 18.0052 13.8342 18.1934 13.96L25.6934 18.96C25.8646 19.0741 26.005 19.2288 26.1021 19.4102C26.1992 19.5916 26.25 19.7942 26.25 20C26.25 20.2058 26.1992 20.4084 26.1021 20.5898C26.005 20.7712 25.8646 20.9259 25.6934 21.04Z" fill="#E1E3E6"/>
</g>
</svg>
